<?xml version="1.0" encoding="UTF-8"?>
<svg version="1.1" xmlns="http://www.w3.org/2000/svg" width="96" height="96">
<path d="M0 0 C20.46 0 40.92 0 62 0 C62 15.18 62 30.36 62 46 C41.54 46 21.08 46 0 46 C0 30.82 0 15.64 0 0 Z " fill="#040462" transform="translate(17,24)"/>
<path d="M0 0 C19.0383459 -0.12488711 37.97763628 0.17246225 57 1 C57 3.97 57 6.94 57 10 C51.555 9.505 51.555 9.505 46 9 C46 9.99 46 10.98 46 12 C45.01 12 44.02 12 43 12 C43 11.01 43 10.02 43 9 C38.38 9 33.76 9 29 9 C29 9.99 29 10.98 29 12 C26.36 12.33 23.72 12.66 21 13 C23.64 14.65 26.28 16.3 29 18 C26 19 26 19 23.95703125 18.00390625 C23.24933594 17.52824219 22.54164062 17.05257812 21.8125 16.5625 C20.73935547 15.85287109 20.73935547 15.85287109 19.64453125 15.12890625 C19.10183594 14.75636719 18.55914062 14.38382813 18 14 C17.67 15.65 17.34 17.3 17 19 C15.35 19 13.7 19 12 19 C11.67 17.02 11.34 15.04 11 13 C8.34587931 13.49150383 6.7062596 14.18183929 4.375 15.625 C3.199375 16.305625 3.199375 16.305625 2 17 C1.34 16.67 0.68 16.34 0 16 C1.32 15.01 2.64 14.02 4 13 C2.68 12.67 1.36 12.34 0 12 C0 8.04 0 4.08 0 0 Z " fill="#8080B1" transform="translate(19,25)"/>
<path d="M0 0 C20.46 0 40.92 0 62 0 C62 15.18 62 30.36 62 46 C41.54 46 21.08 46 0 46 C0 30.82 0 15.64 0 0 Z M2 1 C2 4.96 2 8.92 2 13 C3.32 13.33 4.64 13.66 6 14 C4.68 14.99 3.36 15.98 2 17 C2 25.58 2 34.16 2 43 C21.14 43 40.28 43 60 43 C60 29.14 60 15.28 60 1 C40.86 1 21.72 1 2 1 Z " fill="#010104" transform="translate(17,24)"/>
<path d="M0 0 C4.62 0 9.24 0 14 0 C14 0.99 14 1.98 14 3 C14.99 3 15.98 3 17 3 C17 2.01 17 1.02 17 0 C18.64574566 -0.02688151 20.29161413 -0.04634123 21.9375 -0.0625 C23.31228516 -0.07990234 23.31228516 -0.07990234 24.71484375 -0.09765625 C27 0 27 0 28 1 C28 3.64 28 6.28 28 9 C21.73 8.67 15.46 8.34 9 8 C9 8.99 9 9.98 9 11 C-3.21 11 -15.42 11 -28 11 C-28.33 10.01 -28.66 9.02 -29 8 C-27.76055724 7.13058506 -26.50792941 6.27994543 -25.25 5.4375 C-24.55390625 4.96183594 -23.8578125 4.48617187 -23.140625 3.99609375 C-21 3 -21 3 -18.734375 3.34765625 C-18.16203125 3.56292969 -17.5896875 3.77820312 -17 4 C-17 5.98 -17 7.96 -17 10 C-15.35 10 -13.7 10 -12 10 C-12 8.02 -12 6.04 -12 4 C-11.43410156 4.28875 -10.86820313 4.5775 -10.28515625 4.875 C-9.55167969 5.24625 -8.81820312 5.6175 -8.0625 6 C-7.33160156 6.37125 -6.60070312 6.7425 -5.84765625 7.125 C-4.19009928 8.07133403 -4.19009928 8.07133403 -3 8 C-3.99 7.360625 -4.98 6.72125 -6 6.0625 C-6.99 5.381875 -7.98 4.70125 -9 4 C-9 3.67 -9 3.34 -9 3 C-6.03 3 -3.06 3 0 3 C0 2.01 0 1.02 0 0 Z " fill="#545496" transform="translate(48,34)"/>
<path d="M0 0 C5.28 0 10.56 0 16 0 C16 2.64 16 5.28 16 8 C20.29 8 24.58 8 29 8 C29 9.32 29 10.64 29 12 C26.36 12.33 23.72 12.66 21 13 C23.64 14.65 26.28 16.3 29 18 C26 19 26 19 23.95703125 18.00390625 C23.24933594 17.52824219 22.54164062 17.05257812 21.8125 16.5625 C20.73935547 15.85287109 20.73935547 15.85287109 19.64453125 15.12890625 C19.10183594 14.75636719 18.55914062 14.38382813 18 14 C17.67 15.65 17.34 17.3 17 19 C15.35 19 13.7 19 12 19 C11.67 17.02 11.34 15.04 11 13 C8.34587931 13.49150383 6.7062596 14.18183929 4.375 15.625 C3.199375 16.305625 3.199375 16.305625 2 17 C1.34 16.67 0.68 16.34 0 16 C1.32 15.01 2.64 14.02 4 13 C2.68 12.67 1.36 12.34 0 12 C0 8.04 0 4.08 0 0 Z " fill="#DF4447" transform="translate(19,25)"/>
<path d="M0 0 C0.57234375 0.21527344 1.1446875 0.43054687 1.734375 0.65234375 C1.734375 2.63234375 1.734375 4.61234375 1.734375 6.65234375 C3.384375 6.65234375 5.034375 6.65234375 6.734375 6.65234375 C6.734375 4.67234375 6.734375 2.69234375 6.734375 0.65234375 C10.734375 2.65234375 14.734375 4.65234375 18.734375 6.65234375 C18.734375 5.99234375 18.734375 5.33234375 18.734375 4.65234375 C20.714375 4.65234375 22.694375 4.65234375 24.734375 4.65234375 C24.734375 5.64234375 24.734375 6.63234375 24.734375 7.65234375 C13.514375 7.65234375 2.294375 7.65234375 -9.265625 7.65234375 C-9.595625 6.66234375 -9.925625 5.67234375 -10.265625 4.65234375 C-9.02618224 3.78292881 -7.77355441 2.93228918 -6.515625 2.08984375 C-5.81953125 1.61417969 -5.1234375 1.13851562 -4.40625 0.6484375 C-2.265625 -0.34765625 -2.265625 -0.34765625 0 0 Z " fill="#202077" transform="translate(29.265625,37.34765625)"/>
<path d="M0 0 C1.64574566 -0.02688151 3.29161413 -0.04634123 4.9375 -0.0625 C5.85402344 -0.07410156 6.77054688 -0.08570313 7.71484375 -0.09765625 C10 0 10 0 11 1 C11.14115161 3.67058851 11.04247107 6.32432238 11 9 C9.68 8.67 8.36 8.34 7 8 C7 7.34 7 6.68 7 6 C-0.92 5.67 -8.84 5.34 -17 5 C-16.67 4.34 -16.34 3.68 -16 3 C-10.72 3 -5.44 3 0 3 C0 2.01 0 1.02 0 0 Z " fill="#44448D" transform="translate(65,34)"/>
<path d="M0 0 C4.29 0 8.58 0 13 0 C13 2.64 13 5.28 13 8 C8.71 8 4.42 8 0 8 C0 5.36 0 2.72 0 0 Z " fill="#F8F6F9" transform="translate(19,25)"/>
<path d="M0 0 C0.99 0 1.98 0 3 0 C3 2.64 3 5.28 3 8 C7.29 8 11.58 8 16 8 C16 8.99 16 9.98 16 11 C6.94706663 11.13534286 -1.97859571 10.75741925 -11 10 C-11 9.34 -11 8.68 -11 8 C-7.37 8 -3.74 8 0 8 C0 5.36 0 2.72 0 0 Z " fill="#E45F63" transform="translate(32,25)"/>
<path d="M0 0 C4.29 0 8.58 0 13 0 C12 4 12 4 9 6 C10.32 6.66 11.64 7.32 13 8 C8.71 8 4.42 8 0 8 C0 5.36 0 2.72 0 0 Z " fill="#7E7FB2" transform="translate(35,25)"/>
<path d="M0 0 C2.97 0 5.94 0 9 0 C9 1.98 9 3.96 9 6 C8.34 6 7.68 6 7 6 C7 6.66 7 7.32 7 8 C5.68 8.33 4.36 8.66 3 9 C3 8.34 3 7.68 3 7 C2.01 7.33 1.02 7.66 0 8 C0 5.36 0 2.72 0 0 Z " fill="#232377" transform="translate(28,50)"/>
<path d="M0 0 C8.91 0 17.82 0 27 0 C27 0.66 27 1.32 27 2 C23.7 2 20.4 2 17 2 C17 2.99 17 3.98 17 5 C16.01 5 15.02 5 14 5 C14 4.01 14 3.02 14 2 C9.38 2 4.76 2 0 2 C0 1.34 0 0.68 0 0 Z " fill="#7474AA" transform="translate(48,32)"/>
<path d="M0 0 C0 1.98 0 3.96 0 6 C-3.96 6 -7.92 6 -12 6 C-12 5.34 -12 4.68 -12 4 C-10.390625 2.67578125 -10.390625 2.67578125 -8.25 1.3125 C-7.55390625 0.85488281 -6.8578125 0.39726563 -6.140625 -0.07421875 C-3.60909275 -1.16906025 -2.53899138 -0.9435441 0 0 Z " fill="#353687" transform="translate(31,38)"/>
<path d="M0 0 C5.94 0 11.88 0 18 0 C18.33 0.99 18.66 1.98 19 3 C12.73 3 6.46 3 0 3 C0 2.01 0 1.02 0 0 Z " fill="#242479" transform="translate(57,42)"/>
<path d="M0 0 C3.73487777 0.4979837 5.81237635 0.87491756 9 3 C11.31923274 3.36576054 11.31923274 3.36576054 13.88671875 3.4140625 C14.82451172 3.45273437 15.76230469 3.49140625 16.72851562 3.53125 C17.70498047 3.5621875 18.68144531 3.593125 19.6875 3.625 C20.67556641 3.66367187 21.66363281 3.70234375 22.68164062 3.7421875 C25.12090707 3.83645867 27.56016595 3.92206218 30 4 C30 4.33 30 4.66 30 5 C26.04 5 22.08 5 18 5 C18 5.99 18 6.98 18 8 C17.01 8 16.02 8 15 8 C15 7.01 15 6.02 15 5 C14.01 5.268125 13.02 5.53625 12 5.8125 C7.5964354 6.48789334 5.05849353 4.64125367 1.50390625 2.2265625 C1.00761719 1.82179687 0.51132812 1.41703125 0 1 C0 0.67 0 0.34 0 0 Z " fill="#595999" transform="translate(39,37)"/>
<path d="M0 0 C4.29 0 8.58 0 13 0 C13 0.33 13 0.66 13 1 C10.36 1.33 7.72 1.66 5 2 C7.64 3.65 10.28 5.3 13 7 C10 8 10 8 7.95703125 7.00390625 C7.24933594 6.52824219 6.54164062 6.05257812 5.8125 5.5625 C5.09707031 5.08941406 4.38164063 4.61632813 3.64453125 4.12890625 C3.10183594 3.75636719 2.55914062 3.38382813 2 3 C1.67 4.65 1.34 6.3 1 8 C0.67 8 0.34 8 0 8 C0 5.36 0 2.72 0 0 Z " fill="#F6F3F7" transform="translate(35,36)"/>
<path d="M0 0 C0.33 0 0.66 0 1 0 C1.33 1.98 1.66 3.96 2 6 C5.7910119 4.55049545 9.3874638 2.84827434 13 1 C12 4 12 4 9 6 C10.32 6.66 11.64 7.32 13 8 C8.71 8 4.42 8 0 8 C0 5.36 0 2.72 0 0 Z " fill="#F9F6F8" transform="translate(35,25)"/>
<path d="M0 0 C4.29 0 8.58 0 13 0 C13 2.64 13 5.28 13 8 C12.67 8 12.34 8 12 8 C11.67 6.02 11.34 4.04 11 2 C8.34587931 2.49150383 6.7062596 3.18183929 4.375 4.625 C3.59125 5.07875 2.8075 5.5325 2 6 C1.34 5.67 0.68 5.34 0 5 C1.32 4.01 2.64 3.02 4 2 C2.68 1.34 1.36 0.68 0 0 Z " fill="#F9F5F7" transform="translate(19,36)"/>
<path d="M0 0 C3.3 0 6.6 0 10 0 C10.33 1.65 10.66 3.3 11 5 C10.67 4.34 10.34 3.68 10 3 C6.7 3 3.4 3 0 3 C0 2.01 0 1.02 0 0 Z " fill="#58589A" transform="translate(65,34)"/>
<path d="M0 0 C1.31602523 0.61754259 2.62773556 1.24428742 3.9375 1.875 C4.66839844 2.22304688 5.39929687 2.57109375 6.15234375 2.9296875 C8 4 8 4 9 6 C6.03 6 3.06 6 0 6 C0 4.02 0 2.04 0 0 Z " fill="#3B3B89" transform="translate(36,38)"/>
<path d="M0 0 C2.97 0 5.94 0 9 0 C9 1.98 9 3.96 9 6 C7.68397477 5.38245741 6.37226444 4.75571258 5.0625 4.125 C4.33160156 3.77695312 3.60070312 3.42890625 2.84765625 3.0703125 C1 2 1 2 0 0 Z " fill="#7F7FB2" transform="translate(22,25)"/>
<path d="M0 0 C0 0.66 0 1.32 0 2 C-1.64453125 3.2890625 -1.64453125 3.2890625 -3.8125 4.625 C-4.52019531 5.07101563 -5.22789063 5.51703125 -5.95703125 5.9765625 C-8 7 -8 7 -11 7 C-11 6.34 -11 5.68 -11 5 C-9.35546875 3.7109375 -9.35546875 3.7109375 -7.1875 2.375 C-6.47980469 1.92898437 -5.77210937 1.48296875 -5.04296875 1.0234375 C-3 0 -3 0 0 0 Z " fill="#D68190" transform="translate(30,37)"/>
<path d="M0 0 C2.97 1.65 5.94 3.3 9 5 C5 6 5 6 1 6 C0.67 4.02 0.34 2.04 0 0 Z " fill="#C494AA" transform="translate(19,26)"/>
<path d="M0 0 C0.33 0.66 0.66 1.32 1 2 C1.66 2 2.32 2 3 2 C3.33 2.99 3.66 3.98 4 5 C3.34 5 2.68 5 2 5 C2 5.66 2 6.32 2 7 C1.01 7 0.02 7 -1 7 C-1 6.34 -1 5.68 -1 5 C-1.66 4.67 -2.32 4.34 -3 4 C-2.67 3.34 -2.34 2.68 -2 2 C-1.34 2 -0.68 2 0 2 C0 1.34 0 0.68 0 0 Z " fill="#E1E1E9" transform="translate(33,51)"/>
<path d="M0 0 C0.59425781 0.20109375 1.18851563 0.4021875 1.80078125 0.609375 C0.34628724 1.6149511 -1.11294318 2.61367935 -2.57421875 3.609375 C-3.79238281 4.4446875 -3.79238281 4.4446875 -5.03515625 5.296875 C-7.19921875 6.609375 -7.19921875 6.609375 -9.19921875 6.609375 C-7.8496834 2.56076896 -4.56268351 -0.81042336 0 0 Z " fill="#E9ADB4" transform="translate(46.19921875,25.390625)"/>
<path d="M0 0 C0.99 0 1.98 0 3 0 C3 2.64 3 5.28 3 8 C2.01 8 1.02 8 0 8 C0 5.36 0 2.72 0 0 Z " fill="#E87679" transform="translate(32,25)"/>
<path d="M0 0 C3.73487777 0.4979837 5.81237635 0.87491756 9 3 C8.67 3.99 8.34 4.98 8 6 C6.66402348 5.19185349 5.331275 4.37836819 4 3.5625 C3.2575 3.11003906 2.515 2.65757813 1.75 2.19140625 C1.1725 1.79824219 0.595 1.40507813 0 1 C0 0.67 0 0.34 0 0 Z " fill="#D98492" transform="translate(39,37)"/>
</svg>
