<?xml version="1.0" encoding="UTF-8"?>
<svg version="1.1" xmlns="http://www.w3.org/2000/svg" width="96" height="96">
<path d="M0 0 C20.46 0 40.92 0 62 0 C62 15.18 62 30.36 62 46 C41.54 46 21.08 46 0 46 C0 30.82 0 15.64 0 0 Z " fill="#D61717" transform="translate(17,24)"/>
<path d="M0 0 C10.89 0 21.78 0 33 0 C33 13.86 33 27.72 33 42 C22.11 42 11.22 42 0 42 C0 28.14 0 14.28 0 0 Z " fill="#F6F4F4" transform="translate(32,25)"/>
<path d="M0 0 C3.96 0 7.92 0 12 0 C12 13.86 12 27.72 12 42 C8.04 42 4.08 42 0 42 C0 28.14 0 14.28 0 0 Z " fill="#D61717" transform="translate(65,25)"/>
<path d="M0 0 C20.46 0 40.92 0 62 0 C62 15.18 62 30.36 62 46 C41.54 46 21.08 46 0 46 C0 30.82 0 15.64 0 0 Z M2 1 C2 14.86 2 28.72 2 43 C21.14 43 40.28 43 60 43 C60 29.14 60 15.28 60 1 C40.86 1 21.72 1 2 1 Z " fill="#000000" transform="translate(17,24)"/>
<path d="M0 0 C0.66 0.33 1.32 0.66 2 1 C2.33 1.99 2.66 2.98 3 4 C3.99 4 4.98 4 6 4 C6 6.31 6 8.62 6 11 C6.5775 10.649375 7.155 10.29875 7.75 9.9375 C10.35801776 8.85082593 11.39417629 9.06934867 14 10 C14.3125 13.25 14.3125 13.25 14 17 C11.5625 19.25 11.5625 19.25 9 21 C8.67 21.99 8.34 22.98 8 24 C5.69 24 3.38 24 1 24 C1 26.31 1 28.62 1 31 C0.67 31 0.34 31 0 31 C0 28.69 0 26.38 0 24 C-1.093125 24.103125 -2.18625 24.20625 -3.3125 24.3125 C-4.529375 24.209375 -5.74625 24.10625 -7 24 C-8.75 21.625 -8.75 21.625 -10 19 C-10.99 18.34 -11.98 17.68 -13 17 C-13.1875 13.375 -13.1875 13.375 -13 10 C-10.125 9.375 -10.125 9.375 -7 9 C-6.34 9.66 -5.68 10.32 -5 11 C-5 8.69 -5 6.38 -5 4 C-4.01 4 -3.02 4 -2 4 C-1.34 2.68 -0.68 1.36 0 0 Z " fill="#DB1D1D" transform="translate(48,32)"/>
<path d="M0 0 C4.29 0 8.58 0 13 0 C13 6.6 13 13.2 13 20 C9.04 20 5.08 20 1 20 C0.11722245 15.48184719 -0.10589503 11.22487306 -0.0625 6.625 C-0.05347656 5.37976563 -0.04445313 4.13453125 -0.03515625 2.8515625 C-0.02355469 1.91054688 -0.01195313 0.96953125 0 0 Z " fill="#E45050" transform="translate(19,25)"/>
<path d="M0 0 C3.96 0 7.92 0 12 0 C12.02722517 2.20826378 12.04649729 4.41662638 12.0625 6.625 C12.07410156 7.85476562 12.08570312 9.08453125 12.09765625 10.3515625 C12.00863924 13.67723791 11.63686087 16.74047588 11 20 C7.37 20 3.74 20 0 20 C0 13.4 0 6.8 0 0 Z " fill="#E45050" transform="translate(65,25)"/>
<path d="M0 0 C0.66 0.33 1.32 0.66 2 1 C2.33 1.99 2.66 2.98 3 4 C3.99 4 4.98 4 6 4 C6 6.31 6 8.62 6 11 C6.5775 10.649375 7.155 10.29875 7.75 9.9375 C10.35801776 8.85082593 11.39417629 9.06934867 14 10 C13.67 10.99 13.34 11.98 13 13 C13 12.34 13 11.68 13 11 C12.01 11.66 11.02 12.32 10 13 C7.5480957 13.22705078 7.5480957 13.22705078 4.67578125 13.1953125 C3.13374023 13.18564453 3.13374023 13.18564453 1.56054688 13.17578125 C0.48869141 13.15902344 -0.58316406 13.14226563 -1.6875 13.125 C-2.77095703 13.11597656 -3.85441406 13.10695313 -4.97070312 13.09765625 C-7.6473571 13.0740734 -10.32356797 13.04116126 -13 13 C-13 12.01 -13 11.02 -13 10 C-10.125 9.375 -10.125 9.375 -7 9 C-6.34 9.66 -5.68 10.32 -5 11 C-5 8.69 -5 6.38 -5 4 C-4.01 4 -3.02 4 -2 4 C-1.34 2.68 -0.68 1.36 0 0 Z " fill="#E86060" transform="translate(48,32)"/>
<path d="M0 0 C3.96 0 7.92 0 12 0 C12 3.3 12 6.6 12 10 C6.06 10.495 6.06 10.495 0 11 C0 7.37 0 3.74 0 0 Z " fill="#EE8A8A" transform="translate(20,26)"/>
<path d="M0 0 C3.63 0 7.26 0 11 0 C11 3.63 11 7.26 11 11 C7.37 10.67 3.74 10.34 0 10 C0 6.7 0 3.4 0 0 Z " fill="#EE8A8A" transform="translate(65,26)"/>
<path d="M0 0 C0.66 1.32 1.32 2.64 2 4 C2.5775 3.649375 3.155 3.29875 3.75 2.9375 C6.35801776 1.85082593 7.39417629 2.06934867 10 3 C9.67 3.99 9.34 4.98 9 6 C9 5.34 9 4.68 9 4 C8.01 4.66 7.02 5.32 6 6 C2.86328125 6.1953125 2.86328125 6.1953125 -0.6875 6.125 C-1.86699219 6.10695313 -3.04648437 6.08890625 -4.26171875 6.0703125 C-5.16535156 6.04710937 -6.06898437 6.02390625 -7 6 C-6.67 4.35 -6.34 2.7 -6 1 C-4.02 0.67 -2.04 0.34 0 0 Z " fill="#E65151" transform="translate(52,39)"/>
<path d="M0 0 C3.63 0 7.26 0 11 0 C11 1.65 11 3.3 11 5 C7.04 5 3.08 5 -1 5 C-0.67 3.35 -0.34 1.7 0 0 Z " fill="#E33F3F" transform="translate(21,40)"/>
<path d="M0 0 C3.3 0 6.6 0 10 0 C10.33 1.65 10.66 3.3 11 5 C7.37 5 3.74 5 0 5 C0 3.35 0 1.7 0 0 Z " fill="#E33F3F" transform="translate(65,40)"/>
<path d="M0 0 C4.29 0 8.58 0 13 0 C13 0.99 13 1.98 13 3 C8.71 3 4.42 3 0 3 C0 2.01 0 1.02 0 0 Z " fill="#C20C0E" transform="translate(19,64)"/>
<path d="M0 0 C3.96 0 7.92 0 12 0 C12 0.99 12 1.98 12 3 C8.04 3 4.08 3 0 3 C0 2.01 0 1.02 0 0 Z " fill="#C20C0E" transform="translate(65,64)"/>
<path d="M0 0 C3.63 0 7.26 0 11 0 C11 0.99 11 1.98 11 3 C5.06 3.495 5.06 3.495 -1 4 C-0.67 2.68 -0.34 1.36 0 0 Z " fill="#EA6E6E" transform="translate(21,33)"/>
<path d="M0 0 C3.3 0 6.6 0 10 0 C10.33 1.32 10.66 2.64 11 4 C7.37 3.67 3.74 3.34 0 3 C0 2.01 0 1.02 0 0 Z " fill="#EA6D6D" transform="translate(65,33)"/>
<path d="M0 0 C0 0.66 0 1.32 0 2 C-2.64 2 -5.28 2 -8 2 C-8 1.01 -8 0.02 -8 -1 C-4.59745511 -2.2151946 -3.06748874 -1.86240388 0 0 Z " fill="#E54D4E" transform="translate(43,43)"/>
<path d="M0 0 C2.31 0 4.62 0 7 0 C7 0.99 7 1.98 7 3 C4.69 3 2.38 3 0 3 C0 2.01 0 1.02 0 0 Z " fill="#E23737" transform="translate(45,42)"/>
<path d="M0 0 C0.66 0 1.32 0 2 0 C3.125 5.625 3.125 5.625 2 9 C1.34 8.67 0.68 8.34 0 8 C0 5.36 0 2.72 0 0 Z " fill="#EA6F6F" transform="translate(43,36)"/>
</svg>
