<?xml version="1.0" encoding="UTF-8"?>
<svg version="1.1" xmlns="http://www.w3.org/2000/svg" width="96" height="96">
<path d="M0 0 C20.46 0 40.92 0 62 0 C62 15.18 62 30.36 62 46 C41.54 46 21.08 46 0 46 C0 30.82 0 15.64 0 0 Z " fill="#D20F17" transform="translate(17,24)"/>
<path d="M0 0 C19.14 0 38.28 0 58 0 C57.67 6.6 57.34 13.2 57 20 C52.71 20 48.42 20 44 20 C44 21.98 44 23.96 44 26 C40.7 26 37.4 26 34 26 C34 29.3 34 32.6 34 36 C30.7 36 27.4 36 24 36 C24 32.7 24 29.4 24 26 C20.7 26 17.4 26 14 26 C14 24.02 14 22.04 14 20 C9.71 20 5.42 20 1 20 C0.67 13.4 0.34 6.8 0 0 Z " fill="#ED8084" transform="translate(19,25)"/>
<path d="M0 0 C3.3 0 6.6 0 10 0 C10 3.3 10 6.6 10 10 C13.3 10 16.6 10 20 10 C20 13.3 20 16.6 20 20 C16.7 20 13.4 20 10 20 C10 23.3 10 26.6 10 30 C6.7 30 3.4 30 0 30 C0 26.7 0 23.4 0 20 C-3.3 20 -6.6 20 -10 20 C-10 16.7 -10 13.4 -10 10 C-6.7 10 -3.4 10 0 10 C0 6.7 0 3.4 0 0 Z " fill="#FCFCFC" transform="translate(43,31)"/>
<path d="M0 0 C20.46 0 40.92 0 62 0 C62 15.18 62 30.36 62 46 C41.54 46 21.08 46 0 46 C0 30.82 0 15.64 0 0 Z M2 1 C2 14.86 2 28.72 2 43 C21.14 43 40.28 43 60 43 C60 29.14 60 15.28 60 1 C40.86 1 21.72 1 2 1 Z " fill="#000000" transform="translate(17,24)"/>
<path d="M0 0 C0 2.64 0 5.28 0 8 C-3.3 8 -6.6 8 -10 8 C-10 9.32 -10 10.64 -10 12 C-14.29 12 -18.58 12 -23 12 C-23.125 2.25 -23.125 2.25 -22 0 C-18.70880065 -0.1964031 -15.41703066 -0.38060745 -12.125 -0.5625 C-11.18785156 -0.61857422 -10.25070313 -0.67464844 -9.28515625 -0.73242188 C-8.38925781 -0.78076172 -7.49335937 -0.82910156 -6.5703125 -0.87890625 C-5.74289551 -0.9260376 -4.91547852 -0.97316895 -4.06298828 -1.02172852 C-2 -1 -2 -1 0 0 Z " fill="#E85A5F" transform="translate(43,33)"/>
<path d="M0 0 C3.64581687 -0.02887512 7.29160463 -0.04675585 10.9375 -0.0625 C12.49887695 -0.07506836 12.49887695 -0.07506836 14.09179688 -0.08789062 C15.57583008 -0.09272461 15.57583008 -0.09272461 17.08984375 -0.09765625 C18.46450806 -0.10551147 18.46450806 -0.10551147 19.86694336 -0.11352539 C22 0 22 0 23 1 C23 2.98 23 4.96 23 7 C18.71 7 14.42 7 10 7 C10 5.68 10 4.36 10 3 C6.7 3 3.4 3 0 3 C0 2.01 0 1.02 0 0 Z " fill="#E64A50" transform="translate(53,38)"/>
<path d="M0 0 C1.10988281 -0.00257812 2.21976563 -0.00515625 3.36328125 -0.0078125 C6.55551125 0.11972665 9.55258827 0.52742227 12.6875 1.125 C13.0175 3.105 13.3475 5.085 13.6875 7.125 C2.3025 6.63 2.3025 6.63 -9.3125 6.125 C-9.3125 4.475 -9.3125 2.825 -9.3125 1.125 C-5.9991459 0.02054863 -3.48554805 -0.00804048 0 0 Z " fill="#E96368" transform="translate(62.3125,31.875)"/>
<path d="M0 0 C7.59 0 15.18 0 23 0 C23 0.66 23 1.32 23 2 C19.7 2 16.4 2 13 2 C13 3.32 13 4.64 13 6 C8.71 6 4.42 6 0 6 C0 4.02 0 2.04 0 0 Z " fill="#E5454B" transform="translate(20,39)"/>
<path d="M0 0 C3.96 0 7.92 0 12 0 C12.33 1.32 12.66 2.64 13 4 C8.71 4 4.42 4 0 4 C0 2.68 0 1.36 0 0 Z " fill="#E3343B" transform="translate(63,41)"/>
<path d="M0 0 C0 0.66 0 1.32 0 2 C-7.26 2 -14.52 2 -22 2 C-22 1.34 -22 0.68 -22 0 C-18.70880065 -0.1964031 -15.41703066 -0.38060745 -12.125 -0.5625 C-11.18785156 -0.61857422 -10.25070313 -0.67464844 -9.28515625 -0.73242188 C-8.38925781 -0.78076172 -7.49335937 -0.82910156 -6.5703125 -0.87890625 C-5.74289551 -0.9260376 -4.91547852 -0.97316895 -4.06298828 -1.02172852 C-2 -1 -2 -1 0 0 Z " fill="#EA6B70" transform="translate(43,33)"/>
<path d="M0 0 C3.96 0 7.92 0 12 0 C12 0.99 12 1.98 12 3 C7.71 3 3.42 3 -1 3 C-0.67 2.01 -0.34 1.02 0 0 Z " fill="#E23239" transform="translate(21,42)"/>
</svg>
