<?xml version="1.0" encoding="UTF-8"?>
<svg version="1.1" xmlns="http://www.w3.org/2000/svg" width="96" height="96">
<path d="M0 0 C20.46 0 40.92 0 62 0 C62 15.18 62 30.36 62 46 C41.54 46 21.08 46 0 46 C0 30.82 0 15.64 0 0 Z " fill="#070E6B" transform="translate(17,24)"/>
<path d="M0 0 C18.48 0 36.96 0 56 0 C56 6.27 56 12.54 56 19 C52.04 19 48.08 19 44 19 C44 19.99 44 20.98 44 22 C43.01 22 42.02 22 41 22 C40.505 21.01 40.505 21.01 40 20 C32.08 19.67 24.16 19.34 16 19 C16 19.99 16 20.98 16 22 C14.68 22 13.36 22 12 22 C12 21.01 12 20.02 12 19 C8.04 19 4.08 19 0 19 C0 12.73 0 6.46 0 0 Z " fill="#8589B5" transform="translate(20,26)"/>
<path d="M0 0 C1.93166016 0.01740234 1.93166016 0.01740234 3.90234375 0.03515625 C5.19269531 0.04417969 6.48304687 0.05320313 7.8125 0.0625 C8.81152344 0.07410156 9.81054688 0.08570313 10.83984375 0.09765625 C10.50984375 1.74765625 10.17984375 3.39765625 9.83984375 5.09765625 C10.82984375 5.09765625 11.81984375 5.09765625 12.83984375 5.09765625 C13.49984375 3.44765625 14.15984375 1.79765625 14.83984375 0.09765625 C20.77984375 0.09765625 26.71984375 0.09765625 32.83984375 0.09765625 C32.83984375 1.41765625 32.83984375 2.73765625 32.83984375 4.09765625 C35.31484375 4.59265625 35.31484375 4.59265625 37.83984375 5.09765625 C37.34484375 2.62265625 37.34484375 2.62265625 36.83984375 0.09765625 C41.45984375 0.09765625 46.07984375 0.09765625 50.83984375 0.09765625 C51.33484375 4.55265625 51.33484375 4.55265625 51.83984375 9.09765625 C47.87984375 9.09765625 43.91984375 9.09765625 39.83984375 9.09765625 C39.83984375 10.08765625 39.83984375 11.07765625 39.83984375 12.09765625 C38.84984375 12.09765625 37.85984375 12.09765625 36.83984375 12.09765625 C36.34484375 11.10765625 36.34484375 11.10765625 35.83984375 10.09765625 C27.91984375 9.76765625 19.99984375 9.43765625 11.83984375 9.09765625 C11.83984375 10.08765625 11.83984375 11.07765625 11.83984375 12.09765625 C10.51984375 12.09765625 9.19984375 12.09765625 7.83984375 12.09765625 C7.83984375 11.10765625 7.83984375 10.11765625 7.83984375 9.09765625 C3.87984375 9.09765625 -0.08015625 9.09765625 -4.16015625 9.09765625 C-4.2578125 2.9453125 -4.2578125 2.9453125 -4.16015625 1.09765625 C-3.16015625 0.09765625 -3.16015625 0.09765625 0 0 Z " fill="#31388E" transform="translate(24.16015625,35.90234375)"/>
<path d="M0 0 C20.46 0 40.92 0 62 0 C62 15.18 62 30.36 62 46 C41.54 46 21.08 46 0 46 C0 30.82 0 15.64 0 0 Z M2 1 C2 14.86 2 28.72 2 43 C21.14 43 40.28 43 60 43 C60 29.14 60 15.28 60 1 C40.86 1 21.72 1 2 1 Z " fill="#000000" transform="translate(17,24)"/>
<path d="M0 0 C19.14 0 38.28 0 58 0 C58 13.86 58 27.72 58 42 C38.86 42 19.72 42 0 42 C0 28.14 0 14.28 0 0 Z M1 1 C1 14.0042728 1.35059761 27.01195212 2 40 C19.82 40 37.64 40 56 40 C56.64940239 27.01195212 57 14.0042728 57 1 C38.52 1 20.04 1 1 1 Z " fill="#101676" transform="translate(19,25)"/>
<path d="M0 0 C0.433125 0.474375 0.86625 0.94875 1.3125 1.4375 C3.02309613 3.23686957 3.02309613 3.23686957 6 4 C6 3.01 6 2.02 6 1 C11.94 1 17.88 1 24 1 C24.495 4.465 24.495 4.465 25 8 C24.505 6.515 24.505 6.515 24 5 C19.38 5 14.76 5 10 5 C10.495 7.475 10.495 7.475 11 10 C9.02 10 7.04 10 5 10 C5.33 8.68 5.66 7.36 6 6 C0.06 5.67 -5.88 5.34 -12 5 C-12.66 6.65 -13.32 8.3 -14 10 C-14.99 10 -15.98 10 -17 10 C-16.67 8.35 -16.34 6.7 -16 5 C-20.95 5.33 -25.9 5.66 -31 6 C-30.67 4.35 -30.34 2.7 -30 1 C-27.27022936 0.91873891 -24.5428983 0.85938337 -21.8125 0.8125 C-20.65911133 0.77479492 -20.65911133 0.77479492 -19.48242188 0.73632812 C-14.7802972 0.67578575 -11.88165959 1.03624789 -8 4 C-7.67 3.01 -7.34 2.02 -7 1 C-6.01 1 -5.02 1 -4 1 C-4 1.66 -4 2.32 -4 3 C-3.01 3 -2.02 3 -1 3 C-0.67 2.01 -0.34 1.02 0 0 Z " fill="#666A9B" transform="translate(51,31)"/>
<path d="M0 0 C1.93166016 0.01740234 1.93166016 0.01740234 3.90234375 0.03515625 C5.19269531 0.04417969 6.48304687 0.05320313 7.8125 0.0625 C8.81152344 0.07410156 9.81054688 0.08570313 10.83984375 0.09765625 C10.50984375 1.74765625 10.17984375 3.39765625 9.83984375 5.09765625 C10.82984375 5.42765625 11.81984375 5.75765625 12.83984375 6.09765625 C4.42484375 6.59265625 4.42484375 6.59265625 -4.16015625 7.09765625 C-4.16015625 0.1285586 -4.16015625 0.1285586 0 0 Z " fill="#3A4093" transform="translate(24.16015625,35.90234375)"/>
<path d="M0 0 C0.86689453 -0.00386719 1.73378906 -0.00773437 2.62695312 -0.01171875 C3.45517578 -0.01042969 4.28339844 -0.00914063 5.13671875 -0.0078125 C5.89041748 -0.00668457 6.64411621 -0.00555664 7.4206543 -0.00439453 C9.3125 0.125 9.3125 0.125 11.3125 1.125 C10.9825 2.115 10.6525 3.105 10.3125 4.125 C2.0625 3.795 -6.1875 3.465 -14.6875 3.125 C-14.6875 2.465 -14.6875 1.805 -14.6875 1.125 C-9.81106054 -0.14186881 -4.99941298 -0.02260473 0 0 Z " fill="#242B85" transform="translate(49.6875,41.875)"/>
<path d="M0 0 C6.27 0 12.54 0 19 0 C19 0.33 19 0.66 19 1 C17.35 1 15.7 1 14 1 C14.33 2.65 14.66 4.3 15 6 C13.68 6 12.36 6 11 6 C11 5.01 11 4.02 11 3 C7.04 3 3.08 3 -1 3 C-0.67 2.01 -0.34 1.02 0 0 Z " fill="#383E78" transform="translate(21,42)"/>
<path d="M0 0 C5.94 0 11.88 0 18 0 C18.33 0.99 18.66 1.98 19 3 C18.43490723 3.02505615 17.86981445 3.0501123 17.28759766 3.07592773 C14.73316258 3.19179956 12.1791045 3.31456537 9.625 3.4375 C8.73554687 3.47681641 7.84609375 3.51613281 6.9296875 3.55664062 C6.07890625 3.59853516 5.228125 3.64042969 4.3515625 3.68359375 C3.56604004 3.72025146 2.78051758 3.75690918 1.97119141 3.79467773 C-0.07523496 3.890891 -0.07523496 3.890891 -2 5 C-1.34 3.35 -0.68 1.7 0 0 Z " fill="#4A509C" transform="translate(39,36)"/>
<path d="M0 0 C4.62 0 9.24 0 14 0 C14.33 1.65 14.66 3.3 15 5 C8.07 4.505 8.07 4.505 1 4 C0.67 2.68 0.34 1.36 0 0 Z " fill="#484E9B" transform="translate(61,36)"/>
<path d="M0 0 C5.61 0 11.22 0 17 0 C17 0.99 17 1.98 17 3 C11.39 3 5.78 3 0 3 C-0.33 3.66 -0.66 4.32 -1 5 C-0.67 3.35 -0.34 1.7 0 0 Z " fill="#6469AA" transform="translate(21,32)"/>
<path d="M0 0 C5.94 0 11.88 0 18 0 C18 0.99 18 1.98 18 3 C12.06 3 6.12 3 0 3 C0 2.01 0 1.02 0 0 Z " fill="#6469AA" transform="translate(57,32)"/>
<path d="M0 0 C0.33 1.32 0.66 2.64 1 4 C0.01 5.485 0.01 5.485 -1 7 C-1.99 7 -2.98 7 -4 7 C-3.67 5.35 -3.34 3.7 -3 2 C-7.62 2 -12.24 2 -17 2 C-17 1.67 -17 1.34 -17 1 C-8.585 0.505 -8.585 0.505 0 0 Z " fill="#707590" transform="translate(38,34)"/>
<path d="M0 0 C4.62 0 9.24 0 14 0 C13.67 0.99 13.34 1.98 13 3 C8.71 2.67 4.42 2.34 0 2 C-0.33 2.99 -0.66 3.98 -1 5 C-0.67 3.35 -0.34 1.7 0 0 Z " fill="#4E539F" transform="translate(21,36)"/>
<path d="M0 0 C5.28 0 10.56 0 16 0 C16 0.33 16 0.66 16 1 C12.04 1 8.08 1 4 1 C4.33 2.65 4.66 4.3 5 6 C4.01 6 3.02 6 2 6 C2 4.35 2 2.7 2 1 C1.34 0.67 0.68 0.34 0 0 Z " fill="#4E546C" transform="translate(59,42)"/>
</svg>
