<?xml version="1.0" encoding="UTF-8"?>
<svg version="1.1" xmlns="http://www.w3.org/2000/svg" width="96" height="96">
<path d="M0 0 C20.46 0 40.92 0 62 0 C62 15.18 62 30.36 62 46 C41.54 46 21.08 46 0 46 C0 30.82 0 15.64 0 0 Z " fill="#D50717" transform="translate(17,24)"/>
<path d="M0 0 C20.46 0 40.92 0 62 0 C62 15.18 62 30.36 62 46 C41.54 46 21.08 46 0 46 C0 30.82 0 15.64 0 0 Z M2 1 C2 2.65 2 4.3 2 6 C4.14653855 8.01975125 6.11295423 9.63759782 8.5 11.3125 C9.12003906 11.76689453 9.74007813 12.22128906 10.37890625 12.68945312 C11.90879414 13.80744812 13.45308527 14.90568532 15 16 C8.565 16.495 8.565 16.495 2 17 C2 20.3 2 23.6 2 27 C6.62 27 11.24 27 16 27 C16 27.66 16 28.32 16 29 C14.91138672 29.39251953 14.91138672 29.39251953 13.80078125 29.79296875 C10.93120289 31.02964896 8.6860894 32.44373745 6.1875 34.3125 C5.39730469 34.88613281 4.60710938 35.45976563 3.79296875 36.05078125 C1.73261965 37.89707647 1.73261965 37.89707647 1.73828125 40.73046875 C1.82464844 41.47941406 1.91101563 42.22835937 2 43 C8.80091071 38.79053883 15.36488161 34.37301481 21.78515625 29.6015625 C24 28 24 28 26 27 C22.22180665 31.00936388 18.20415407 34.17270443 13.6875 37.3125 C13.04232422 37.76689453 12.39714844 38.22128906 11.73242188 38.68945312 C10.15802858 39.79735952 8.57944354 40.89930525 7 42 C7.99 42.33 8.98 42.66 10 43 C11.80524115 42.11937422 11.80524115 42.11937422 13.57421875 40.69140625 C14.24130859 40.19189453 14.90839844 39.69238281 15.59570312 39.17773438 C16.63114258 38.37819336 16.63114258 38.37819336 17.6875 37.5625 C18.38939453 37.03333984 19.09128906 36.50417969 19.81445312 35.95898438 C21.54994498 34.64851093 23.27589516 33.32541885 25 32 C25.33 35.63 25.66 39.26 26 43 C29.3 43 32.6 43 36 43 C36 39.04 36 35.08 36 31 C37.73636719 32.299375 37.73636719 32.299375 39.5078125 33.625 C41.04633033 34.75074476 42.58542327 35.87570383 44.125 37 C44.88554688 37.57234375 45.64609375 38.1446875 46.4296875 38.734375 C50.70151202 41.82776517 53.49451182 43.84429212 59 43 C55.60994909 39.29213182 52.21360058 36.73084236 47.8671875 34.2109375 C46 33 46 33 44.3828125 31.3515625 C43.08388979 29.7670067 43.08388979 29.7670067 41 30 C41 29.34 41 28.68 41 28 C45.11679453 28.553437 47.41171993 30.78616066 50.5 33.4375 C54.92355426 37.22608571 54.92355426 37.22608571 60 40 C58.47236536 35.91403748 55.88915809 34.20173821 52.375 31.75 C50.87066406 30.69039062 50.87066406 30.69039062 49.3359375 29.609375 C48.56507812 29.07828125 47.79421875 28.5471875 47 28 C53.435 27.505 53.435 27.505 60 27 C60 23.7 60 20.4 60 17 C55.71 16.67 51.42 16.34 47 16 C48.40765625 15.00419922 48.40765625 15.00419922 49.84375 13.98828125 C51.06312057 13.09720275 52.28183699 12.20522861 53.5 11.3125 C54.12003906 10.87744141 54.74007812 10.44238281 55.37890625 9.99414062 C57.41033036 8.54081515 57.41033036 8.54081515 60 6 C60 4.35 60 2.7 60 1 C40.86 1 21.72 1 2 1 Z " fill="#000002" transform="translate(17,24)"/>
<path d="M0 0 C8.58 0 17.16 0 26 0 C26 5.94 26 11.88 26 18 C17.42 18 8.84 18 0 18 C0 17.34 0 16.68 0 16 C6.435 15.505 6.435 15.505 13 15 C12.0615625 14.33613281 11.123125 13.67226563 10.15625 12.98828125 C8.93687943 12.09720275 7.71816301 11.20522861 6.5 10.3125 C5.87996094 9.87744141 5.25992187 9.44238281 4.62109375 8.99414062 C2.84375 7.67578125 2.84375 7.67578125 0 5 C0 3.35 0 1.7 0 0 Z " fill="#F9F5F7" transform="translate(19,25)"/>
<path d="M0 0 C8.58 0 17.16 0 26 0 C26 1.65 26 3.3 26 5 C23.85346145 7.01975125 21.88704577 8.63759782 19.5 10.3125 C18.87996094 10.76689453 18.25992188 11.22128906 17.62109375 11.68945312 C16.09120586 12.80744812 14.54691473 13.90568532 13 15 C17.29 15.33 21.58 15.66 26 16 C26 16.66 26 17.32 26 18 C17.42 18 8.84 18 0 18 C0 12.06 0 6.12 0 0 Z " fill="#F9F5F7" transform="translate(51,25)"/>
<path d="M0 0 C1.98 0 3.96 0 6 0 C6 5.94 6 11.88 6 18 C14.25 18 22.5 18 31 18 C31 18.66 31 19.32 31 20 C12.52 20 -5.96 20 -25 20 C-25 19.34 -25 18.68 -25 18 C-16.75 18 -8.5 18 0 18 C0 12.06 0 6.12 0 0 Z " fill="#DB2836" transform="translate(45,25)"/>
<path d="M0 0 C8.58 0 17.16 0 26 0 C26 0.66 26 1.32 26 2 C19.565 2.495 19.565 2.495 13 3 C19.435 7.95 19.435 7.95 26 13 C25.67 13.66 25.34 14.32 25 15 C22.87362766 13.37676928 20.74886564 11.7515047 18.625 10.125 C18.02171875 9.66480469 17.4184375 9.20460938 16.796875 8.73046875 C14.41748609 6.90627059 12.12258788 5.12258788 10 3 C9.01 3 8.02 3 7 3 C7 3.66 7 4.32 7 5 C7.5775 5.0825 8.155 5.165 8.75 5.25 C11 6 11 6 12.8125 7.81640625 C15.13186224 10.13162677 17.53548175 11.8579782 20.25 13.6875 C21.85004892 14.7673018 23.43875316 15.86481861 25 17 C25 17.33 25 17.66 25 18 C19.07449516 18.70779384 16.27741651 16.5844764 11.8125 13.125 C10.58986729 12.21090601 9.36721186 11.29684242 8.14453125 10.3828125 C6.58798828 9.20332031 6.58798828 9.20332031 5 8 C4.01 7.34 3.02 6.68 2 6 C2 9.96 2 13.92 2 18 C1.34 18 0.68 18 0 18 C0 12.06 0 6.12 0 0 Z " fill="#E9E3E6" transform="translate(51,49)"/>
<path d="M0 0 C8.58 0 17.16 0 26 0 C26 5.94 26 11.88 26 18 C25.34 18 24.68 18 24 18 C23.67 14.37 23.34 10.74 23 7 C21.95199219 7.80566406 20.90398438 8.61132812 19.82421875 9.44140625 C18.44572132 10.48231247 17.06679258 11.52264765 15.6875 12.5625 C14.99720703 13.09552734 14.30691406 13.62855469 13.59570312 14.17773438 C12.59506836 14.92700195 12.59506836 14.92700195 11.57421875 15.69140625 C10.96151123 16.15748291 10.34880371 16.62355957 9.7175293 17.10375977 C9.15074463 17.39951904 8.58395996 17.69527832 8 18 C7.01 17.67 6.02 17.34 5 17 C6.42892578 16.00419922 6.42892578 16.00419922 7.88671875 14.98828125 C9.15382743 14.09661218 10.42074436 13.20467056 11.6875 12.3125 C12.31333984 11.87744141 12.93917969 11.44238281 13.58398438 10.99414062 C17.43692112 8.27086073 20.76308929 5.4349626 24 2 C16.80349192 6.40573625 10.01419071 11.13560381 3.3359375 16.27734375 C1 18 1 18 0 18 C-0.3671875 15.80078125 -0.3671875 15.80078125 0 13 C1.95009328 11.12445157 3.67606005 9.69958571 5.875 8.1875 C6.70837891 7.57745117 6.70837891 7.57745117 7.55859375 6.95507812 C11.68080357 4 11.68080357 4 14 4 C14 3.34 14 2.68 14 2 C9.38 2 4.76 2 0 2 C0 1.34 0 0.68 0 0 Z " fill="#ECE7E9" transform="translate(19,49)"/>
<path d="M0 0 C3.82883551 1.91441775 7.2495646 4.12758175 10.75 6.5625 C11.35199219 6.97435547 11.95398438 7.38621094 12.57421875 7.81054688 C14.06901162 8.84605531 15.53717981 9.91979607 17 11 C17 11.33 17 11.66 17 12 C11.39 12 5.78 12 0 12 C0 8.04 0 4.08 0 0 Z " fill="#0C0C65" transform="translate(53,55)"/>
<path d="M0 0 C5.61 0 11.22 0 17 0 C15.35 1.32 13.7 2.64 12 4 C11.14019531 4.70640625 10.28039062 5.4128125 9.39453125 6.140625 C8.11642578 7.18476562 8.11642578 7.18476562 6.8125 8.25 C5.95269531 8.95640625 5.09289063 9.6628125 4.20703125 10.390625 C2 12 2 12 0 12 C0 8.04 0 4.08 0 0 Z " fill="#7D7DB0" transform="translate(53,25)"/>
<path d="M0 0 C1.98 0 3.96 0 6 0 C6 5.94 6 11.88 6 18 C4.02 18 2.04 18 0 18 C0 12.06 0 6.12 0 0 Z " fill="#CB0F1E" transform="translate(45,49)"/>
<path d="M0 0 C5.61 0 11.22 0 17 0 C17 3.96 17 7.92 17 12 C13.17116449 10.08558225 9.7504354 7.87241825 6.25 5.4375 C5.64800781 5.02564453 5.04601562 4.61378906 4.42578125 4.18945312 C2.93098838 3.15394469 1.46282019 2.08020393 0 1 C0 0.67 0 0.34 0 0 Z " fill="#7D7DB0" transform="translate(26,25)"/>
<path d="M0 0 C0 3.96 0 7.92 0 12 C-5.28 12 -10.56 12 -16 12 C-12.50918821 8.50918821 -9.71032863 5.90874378 -5.75 3.1875 C-4.87859375 2.58292969 -4.0071875 1.97835937 -3.109375 1.35546875 C-1 0 -1 0 0 0 Z " fill="#080963" transform="translate(43,55)"/>
<path d="M0 0 C1.98 0 3.96 0 6 0 C6 5.61 6 11.22 6 17 C5.67 16.34 5.34 15.68 5 15 C4.01 15 3.02 15 2 15 C1.34 15.66 0.68 16.32 0 17 C0 11.39 0 5.78 0 0 Z " fill="#E97E87" transform="translate(45,25)"/>
<path d="M0 0 C4.62 0 9.24 0 14 0 C14 0.66 14 1.32 14 2 C11.88389996 3.63048598 9.77726231 5.14076138 7.5625 6.625 C6.95083984 7.04523437 6.33917969 7.46546875 5.70898438 7.8984375 C1.1523057 11 1.1523057 11 0 11 C0 7.37 0 3.74 0 0 Z " fill="#080865" transform="translate(19,51)"/>
<path d="M0 0 C4.62 0 9.24 0 14 0 C14 3.63 14 7.26 14 11 C12.22337883 9.92618483 10.45390311 8.840542 8.6875 7.75 C7.70136719 7.14671875 6.71523437 6.5434375 5.69921875 5.921875 C3 4 3 4 0 0 Z " fill="#040462" transform="translate(63,51)"/>
<path d="M0 0 C1.77662117 1.07381517 3.54609689 2.159458 5.3125 3.25 C6.29863281 3.85328125 7.28476562 4.4565625 8.30078125 5.078125 C11 7 11 7 14 11 C9.38 11 4.76 11 0 11 C0 7.37 0 3.74 0 0 Z " fill="#40418D" transform="translate(19,30)"/>
<path d="M0 0 C0 3.3 0 6.6 0 10 C-4.29 10 -8.58 10 -13 10 C-3.28571429 0 -3.28571429 0 0 0 Z " fill="#515197" transform="translate(76,31)"/>
<path d="M0 0 C0.66 0 1.32 0 2 0 C2 5.94 2 11.88 2 18 C1.34 18 0.68 18 0 18 C-0.33 14.37 -0.66 10.74 -1 7 C-2.04800781 7.80566406 -3.09601562 8.61132812 -4.17578125 9.44140625 C-5.55427868 10.48231247 -6.93320742 11.52264765 -8.3125 12.5625 C-9.00279297 13.09552734 -9.69308594 13.62855469 -10.40429688 14.17773438 C-11.40493164 14.92700195 -11.40493164 14.92700195 -12.42578125 15.69140625 C-13.03848877 16.15748291 -13.65119629 16.62355957 -14.2824707 17.10375977 C-14.84925537 17.39951904 -15.41604004 17.69527832 -16 18 C-16.99 17.67 -17.98 17.34 -19 17 C-18.03578125 16.31292969 -17.0715625 15.62585938 -16.078125 14.91796875 C-14.80206523 14.00783788 -13.52602457 13.09768022 -12.25 12.1875 C-11.29867188 11.50977539 -11.29867188 11.50977539 -10.328125 10.81835938 C-9.09706048 9.93994354 -7.86751506 9.05939407 -6.63964844 8.17651367 C-5.29715855 7.21322321 -3.94656884 6.2612301 -2.59375 5.3125 C-0.62153215 3.6883206 -0.34327369 2.48873425 0 0 Z " fill="#E0D8DE" transform="translate(43,49)"/>
<path d="M0 0 C-2.13287803 5.05008277 -6.00402483 7.25209131 -10.375 10.3125 C-11.14328125 10.87517578 -11.9115625 11.43785156 -12.703125 12.01757812 C-13.44820312 12.54416016 -14.19328125 13.07074219 -14.9609375 13.61328125 C-15.63946777 14.09579346 -16.31799805 14.57830566 -17.01708984 15.07543945 C-19 16 -19 16 -21.25244141 15.64916992 C-22.11748291 15.32783081 -22.11748291 15.32783081 -23 15 C-19.8768363 12.68501168 -16.75116342 10.37343546 -13.625 8.0625 C-12.73554688 7.40314453 -11.84609375 6.74378906 -10.9296875 6.06445312 C-10.07890625 5.43603516 -9.228125 4.80761719 -8.3515625 4.16015625 C-7.56604004 3.57886963 -6.78051758 2.99758301 -5.97119141 2.39868164 C-2.590679 0 -2.590679 0 0 0 Z " fill="#CF1823" transform="translate(43,51)"/>
<path d="M0 0 C0.57145752 0.21946289 1.14291504 0.43892578 1.73168945 0.66503906 C-3.60164388 4.66503906 -8.93497721 8.66503906 -14.26831055 12.66503906 C-14.94667969 13.22022217 -15.62504883 13.77540527 -16.32397461 14.34741211 C-18.26831055 15.66503906 -18.26831055 15.66503906 -21.26831055 15.66503906 C-19.65944591 10.83844516 -15.48183574 8.8152741 -11.45581055 5.91503906 C-10.63532227 5.30015625 -9.81483398 4.68527344 -8.96948242 4.05175781 C-8.17477539 3.47554687 -7.38006836 2.89933594 -6.5612793 2.30566406 C-5.83448975 1.77489258 -5.1077002 1.24412109 -4.35888672 0.69726562 C-2.26831055 -0.33496094 -2.26831055 -0.33496094 0 0 Z " fill="#EA8389" transform="translate(74.268310546875,25.3349609375)"/>
<path d="M0 0 C7.25904881 4.67438749 14.13458887 9.7725296 21 15 C19.22509766 15.64208984 19.22509766 15.64208984 17 16 C15.20068359 15.11962891 15.20068359 15.11962891 13.3984375 13.7265625 C12.74359375 13.2315625 12.08875 12.7365625 11.4140625 12.2265625 C10.74117187 11.69804688 10.06828125 11.16953125 9.375 10.625 C8.02937862 9.59539576 6.68305643 8.56670659 5.3359375 7.5390625 C4.44720947 6.84611084 4.44720947 6.84611084 3.54052734 6.13916016 C1.98596338 4.92122682 1.98596338 4.92122682 0 4 C0 2.68 0 1.36 0 0 Z " fill="#E46068" transform="translate(19,25)"/>
<path d="M0 0 C4.66700902 0.49126411 7.0472801 2.35357316 10.5625 5.375 C13.65392457 8.00764172 16.71853172 10.60645843 20 13 C19.67 13.99 19.34 14.98 19 16 C16.66083869 14.38287572 14.32878299 12.75694638 12 11.125 C11.33226563 10.66480469 10.66453125 10.20460938 9.9765625 9.73046875 C8.28140649 8.53694054 6.6362422 7.27309661 5 6 C5 5.34 5 4.68 5 4 C4.360625 3.896875 3.72125 3.79375 3.0625 3.6875 C2.381875 3.460625 1.70125 3.23375 1 3 C0.67 2.01 0.34 1.02 0 0 Z " fill="#D0232E" transform="translate(57,51)"/>
<path d="M0 0 C3.97169202 2.17318997 6.77085357 3.77085357 10 7 C6.7 7.33 3.4 7.66 0 8 C0 5.36 0 2.72 0 0 Z " fill="#5E5F9F" transform="translate(20,31)"/>
<path d="M0 0 C2.32590854 3.63423209 2.16265833 6.77088331 2 11 C1.67 10.34 1.34 9.68 1 9 C-1.02463255 8.34786708 -1.02463255 8.34786708 -3 8 C-3 5.69 -3 3.38 -3 1 C-2.01 0.67 -1.02 0.34 0 0 Z " fill="#E5656F" transform="translate(49,31)"/>
<path d="M0 0 C0.57234375 0.22558594 1.1446875 0.45117188 1.734375 0.68359375 C0.49702516 1.71972408 -0.75607137 2.73707177 -2.015625 3.74609375 C-3.05976563 4.59880859 -3.05976563 4.59880859 -4.125 5.46875 C-6.265625 6.68359375 -6.265625 6.68359375 -8.53125 6.3671875 C-9.10359375 6.14160156 -9.6759375 5.91601562 -10.265625 5.68359375 C-9.02827516 4.64746342 -7.77517863 3.63011573 -6.515625 2.62109375 C-5.81953125 2.05261719 -5.1234375 1.48414063 -4.40625 0.8984375 C-2.265625 -0.31640625 -2.265625 -0.31640625 0 0 Z " fill="#C5151F" transform="translate(30.265625,60.31640625)"/>
<path d="M0 0 C6.75 3.75 6.75 3.75 9 6 C8.67 6.99 8.34 7.98 8 9 C5.03 6.69 2.06 4.38 -1 2 C-0.67 1.34 -0.34 0.68 0 0 Z " fill="#C9131E" transform="translate(68,58)"/>
<path d="M0 0 C1.98 0 3.96 0 6 0 C6 0.99 6 1.98 6 3 C3.5 4.6875 3.5 4.6875 1 6 C0 5 0 5 -0.0625 2.4375 C-0.041875 1.633125 -0.02125 0.82875 0 0 Z " fill="#0F0F6C" transform="translate(20,55)"/>
<path d="M0 0 C0 3.3 0 6.6 0 10 C-0.33 10 -0.66 10 -1 10 C-1 8.35 -1 6.7 -1 5 C-2.98 5 -4.96 5 -7 5 C-2.25 0 -2.25 0 0 0 Z " fill="#6E6EA9" transform="translate(76,31)"/>
<path d="M0 0 C0.99 0.33 1.98 0.66 3 1 C1.90398831 2.00893131 0.79786082 3.00688225 -0.3125 4 C-1.23482422 4.8353125 -1.23482422 4.8353125 -2.17578125 5.6875 C-4 7 -4 7 -7 7 C-5.65117186 2.95351557 -3.65173931 2.04497401 0 0 Z " fill="#E25860" transform="translate(60,34)"/>
<path d="M0 0 C4.455 2.97 4.455 2.97 9 6 C8.01 6.66 7.02 7.32 6 8 C3 6.25 3 6.25 0 4 C0 2.68 0 1.36 0 0 Z " fill="#E98087" transform="translate(19,25)"/>
<path d="M0 0 C1.98 0 3.96 0 6 0 C6 1.98 6 3.96 6 6 C1.125 3.375 1.125 3.375 0 0 Z " fill="#090969" transform="translate(70,55)"/>
<path d="M0 0 C1.32 1.32 2.64 2.64 4 4 C2.625 5.5 2.625 5.5 1 7 C0.34 7 -0.32 7 -1 7 C-1.04254356 5.00045254 -1.04080783 2.99958364 -1 1 C-0.67 0.67 -0.34 0.34 0 0 Z " fill="#6D6DA6" transform="translate(54,30)"/>
<path d="M0 0 C2 2 2 2 2 6 C-1.16115776 4.63016497 -1.9927092 4.0109362 -4 1 C-2.125 0.375 -2.125 0.375 0 0 Z " fill="#6B6BA6" transform="translate(41,31)"/>
<path d="M0 0 C1.32 0 2.64 0 4 0 C4.33 1.98 4.66 3.96 5 6 C4.67 5.34 4.34 4.68 4 4 C1.97536745 3.34786708 1.97536745 3.34786708 0 3 C0 2.01 0 1.02 0 0 Z " fill="#E14C58" transform="translate(46,36)"/>
<path d="M0 0 C1.98 0.99 1.98 0.99 4 2 C3.67 2.99 3.34 3.98 3 5 C2.34 5 1.68 5 1 5 C0.67 5.99 0.34 6.98 0 8 C0 5.36 0 2.72 0 0 Z " fill="#6B6BA8" transform="translate(20,31)"/>
</svg>
