<?xml version="1.0" encoding="UTF-8"?>
<svg version="1.1" xmlns="http://www.w3.org/2000/svg" width="96" height="96">
<path d="M0 0 C20.46 0 40.92 0 62 0 C62 15.18 62 30.36 62 46 C41.54 46 21.08 46 0 46 C0 30.82 0 15.64 0 0 Z " fill="#F7F5F5" transform="translate(17,24)"/>
<path d="M0 0 C4.12611421 1.74213711 6.73295974 4.13763511 9 8 C9.71084748 12.34406794 9.52039821 15.86008011 7.6875 19.875 C4.71532525 23.61773858 2.90744268 25.55486827 -2.015625 26.30859375 C-6.65879958 26.57646921 -9.3621234 26.22407468 -13 23.1875 C-16.29878032 20.09489345 -17.18007935 17.21195787 -17.4375 12.75 C-17.41406345 7.96894285 -15.74345728 5.68882499 -12.5078125 2.3125 C-8.83402502 -0.88540827 -4.63358506 -0.44244302 0 0 Z " fill="#D90209" transform="translate(52,33)"/>
<path d="M0 0 C20.46 0 40.92 0 62 0 C62 15.18 62 30.36 62 46 C41.54 46 21.08 46 0 46 C0 30.82 0 15.64 0 0 Z M2 1 C2 14.86 2 28.72 2 43 C21.14 43 40.28 43 60 43 C60 29.14 60 15.28 60 1 C40.86 1 21.72 1 2 1 Z " fill="#000000" transform="translate(17,24)"/>
<path d="M0 0 C4.13216749 1.74469294 6.54193489 4.26738261 9 8 C9 9.32 9 10.64 9 12 C0.42 12 -8.16 12 -17 12 C-15.95956286 5.75737716 -15.65702135 4.70797352 -11.1015625 1.13671875 C-7.4278943 -0.8503397 -4.03622276 -0.76011728 0 0 Z " fill="#E53D43" transform="translate(52,33)"/>
<path d="M0 0 C3.22265194 1.47121067 5.73692677 3.2604903 8 6 C8 6.66 8 7.32 8 8 C5 7 5 7 3 6 C0.34164263 5.87561549 -2.27905229 5.81483812 -4.9375 5.8125 C-6.03094727 5.79413086 -6.03094727 5.79413086 -7.14648438 5.77539062 C-10.9713391 5.76487315 -12.74356564 5.82904376 -16 8 C-13.03443373 0.45128586 -7.47619653 -1.14181911 0 0 Z " fill="#E74E53" transform="translate(52,33)"/>
<path d="M0 0 C7.92 0 15.84 0 24 0 C24.33 0.99 24.66 1.98 25 3 C16.42 3 7.84 3 -1 3 C-0.67 2.01 -0.34 1.02 0 0 Z " fill="#E2242B" transform="translate(36,42)"/>
<path d="M0 0 C0.76183594 0.00386719 1.52367187 0.00773437 2.30859375 0.01171875 C4.75779127 0.3385614 6.42950917 1.09295399 8.5625 2.3125 C7.9025 2.9725 7.2425 3.6325 6.5625 4.3125 C3.3046875 4.2890625 3.3046875 4.2890625 -0.5625 3.9375 C-1.84382813 3.82664063 -3.12515625 3.71578125 -4.4453125 3.6015625 C-5.43273438 3.50617187 -6.42015625 3.41078125 -7.4375 3.3125 C-5.08278413 0.46126257 -3.67419868 -0.08054736 0 0 Z " fill="#EB6A6D" transform="translate(47.4375,32.6875)"/>
<path d="M0 0 C2.64 0 5.28 0 8 0 C8 0.99 8 1.98 8 3 C5.6568787 2.74438677 3.32156597 2.40729228 1 2 C0.67 1.34 0.34 0.68 0 0 Z " fill="#EA6064" transform="translate(47,34)"/>
</svg>
