<?xml version="1.0" encoding="UTF-8"?>
<svg version="1.1" xmlns="http://www.w3.org/2000/svg" width="96" height="96">
<path d="M0 0 C20.46 0 40.92 0 62 0 C62 15.18 62 30.36 62 46 C41.54 46 21.08 46 0 46 C0 30.82 0 15.64 0 0 Z " fill="#020160" transform="translate(17,24)"/>
<path d="M0 0 C19.03970313 -0.12489601 37.97597784 0.1848927 57 1 C57 6.61 57 12.22 57 18 C54.69 18 52.38 18 50 18 C49.505 16.02 49.505 16.02 49 14 C45.04 14 41.08 14 37 14 C37 14.66 37 15.32 37 16 C37.66 16 38.32 16 39 16 C38.67 17.32 38.34 18.64 38 20 C25.79 20 13.58 20 1 20 C0.67 18.68 0.34 17.36 0 16 C1.32 15.01 2.64 14.02 4 13 C2.68 12.67 1.36 12.34 0 12 C0 8.04 0 4.08 0 0 Z " fill="#DF4447" transform="translate(19,25)"/>
<path d="M0 0 C20.46 0 40.92 0 62 0 C62 15.18 62 30.36 62 46 C41.54 46 21.08 46 0 46 C0 30.82 0 15.64 0 0 Z M2 1 C2 4.96 2 8.92 2 13 C3.32 13.33 4.64 13.66 6 14 C4.68 14.99 3.36 15.98 2 17 C2 25.58 2 34.16 2 43 C21.14 43 40.28 43 60 43 C60 29.14 60 15.28 60 1 C40.86 1 21.72 1 2 1 Z " fill="#010104" transform="translate(17,24)"/>
<path d="M0 0 C4.29 0 8.58 0 13 0 C13.66 1.32 14.32 2.64 15 4 C15.66 3.67 16.32 3.34 17 3 C17.33 2.01 17.66 1.02 18 0 C20.97 0 23.94 0 27 0 C28.28317892 3.84953676 28.06643637 6.94738135 28 11 C25.69 11 23.38 11 21 11 C20.505 9.02 20.505 9.02 20 7 C16.04 7 12.08 7 8 7 C8 7.66 8 8.32 8 9 C8.66 9 9.32 9 10 9 C9.67 10.32 9.34 11.64 9 13 C-3.21 13 -15.42 13 -28 13 C-28.33 12.01 -28.66 11.02 -29 10 C-27.76055724 9.13058506 -26.50792941 8.27994543 -25.25 7.4375 C-24.55390625 6.96183594 -23.8578125 6.48617187 -23.140625 5.99609375 C-21 5 -21 5 -18.734375 5.34765625 C-18.16203125 5.56292969 -17.5896875 5.77820312 -17 6 C-17 7.98 -17 9.96 -17 12 C-15.35 12 -13.7 12 -12 12 C-12 10.02 -12 8.04 -12 6 C-11.43410156 6.28875 -10.86820313 6.5775 -10.28515625 6.875 C-9.55167969 7.24625 -8.81820312 7.6175 -8.0625 8 C-7.33160156 8.37125 -6.60070312 8.7425 -5.84765625 9.125 C-4.19009928 10.07133403 -4.19009928 10.07133403 -3 10 C-3.99 9.360625 -4.98 8.72125 -6 8.0625 C-6.99 7.381875 -7.98 6.70125 -9 6 C-9 5.67 -9 5.34 -9 5 C-6.03 5 -3.06 5 0 5 C0 3.35 0 1.7 0 0 Z " fill="#575193" transform="translate(48,32)"/>
<path d="M0 0 C9.57 0 19.14 0 29 0 C29 13.86 29 27.72 29 42 C9.86 42 -9.28 42 -29 42 C-29 34.41 -29 26.82 -29 19 C-28.34 19.33 -27.68 19.66 -27 20 C-27 26.6 -27 33.2 -27 40 C-9.18 40 8.64 40 27 40 C27 33.4 27 26.8 27 20 C21.06 20 15.12 20 9 20 C9.33 18.68 9.66 17.36 10 16 C9.34 16 8.68 16 8 16 C8 15.34 8 14.68 8 14 C9.93681161 13.91892417 11.8745934 13.86077525 13.8125 13.8125 C14.89144531 13.77769531 15.97039063 13.74289063 17.08203125 13.70703125 C20.42261599 14.04243132 20.83603831 14.63762348 23 17 C24.32 17 25.64 17 27 17 C27.33 11.72 27.66 6.44 28 1 C18.76 1 9.52 1 0 1 C0 0.67 0 0.34 0 0 Z " fill="#090964" transform="translate(48,25)"/>
<path d="M0 0 C9.2839388 -0.07025156 18.53598125 0.13927357 27.8125 0.5 C29.08931641 0.54769531 30.36613281 0.59539063 31.68164062 0.64453125 C34.78784841 0.76086862 37.89395572 0.87938938 41 1 C41 3.97 41 6.94 41 10 C40.505 8.515 40.505 8.515 40 7 C37.03 7 34.06 7 31 7 C30.67 8.65 30.34 10.3 30 12 C29.01 12 28.02 12 27 12 C26.67 10.35 26.34 8.7 26 7 C25.21238281 7.0721875 24.42476562 7.144375 23.61328125 7.21875 C15.72042846 7.8912771 7.91941214 8.11665255 0 8 C0 5.36 0 2.72 0 0 Z " fill="#8481B1" transform="translate(35,25)"/>
<path d="M0 0 C0.57234375 0.21527344 1.1446875 0.43054687 1.734375 0.65234375 C1.734375 2.63234375 1.734375 4.61234375 1.734375 6.65234375 C3.384375 6.65234375 5.034375 6.65234375 6.734375 6.65234375 C6.734375 4.67234375 6.734375 2.69234375 6.734375 0.65234375 C10.734375 2.65234375 14.734375 4.65234375 18.734375 6.65234375 C18.734375 5.66234375 18.734375 4.67234375 18.734375 3.65234375 C20.384375 3.65234375 22.034375 3.65234375 23.734375 3.65234375 C24.229375 5.63234375 24.229375 5.63234375 24.734375 7.65234375 C13.514375 7.65234375 2.294375 7.65234375 -9.265625 7.65234375 C-9.595625 6.66234375 -9.925625 5.67234375 -10.265625 4.65234375 C-9.02618224 3.78292881 -7.77355441 2.93228918 -6.515625 2.08984375 C-5.81953125 1.61417969 -5.1234375 1.13851562 -4.40625 0.6484375 C-2.265625 -0.34765625 -2.265625 -0.34765625 0 0 Z " fill="#1E1E75" transform="translate(29.265625,37.34765625)"/>
<path d="M0 0 C4.29 0 8.58 0 13 0 C13 2.64 13 5.28 13 8 C8.71 8 4.42 8 0 8 C0 5.36 0 2.72 0 0 Z " fill="#F8F6F9" transform="translate(19,25)"/>
<path d="M0 0 C0.99 0 1.98 0 3 0 C3 2.64 3 5.28 3 8 C7.29 8 11.58 8 16 8 C16 8.99 16 9.98 16 11 C6.94706663 11.13534286 -1.97859571 10.75741925 -11 10 C-11 9.34 -11 8.68 -11 8 C-7.37 8 -3.74 8 0 8 C0 5.36 0 2.72 0 0 Z " fill="#E45F63" transform="translate(32,25)"/>
<path d="M0 0 C4.29 0 8.58 0 13 0 C12 4 12 4 9 6 C10.32 6.66 11.64 7.32 13 8 C8.71 8 4.42 8 0 8 C0 5.36 0 2.72 0 0 Z " fill="#7E7FB2" transform="translate(35,25)"/>
<path d="M0 0 C1.93681161 -0.08107583 3.8745934 -0.13922475 5.8125 -0.1875 C6.89144531 -0.22230469 7.97039063 -0.25710937 9.08203125 -0.29296875 C12.37045827 0.03719461 12.95511184 0.55610927 15 3 C17.60611077 3.72197162 17.60611077 3.72197162 20 4 C20 4.66 20 5.32 20 6 C13.73 6 7.46 6 1 6 C1.33 4.68 1.66 3.36 2 2 C1.34 2 0.68 2 0 2 C0 1.34 0 0.68 0 0 Z " fill="#25257A" transform="translate(56,39)"/>
<path d="M0 0 C0 1.98 0 3.96 0 6 C-3.96 6 -7.92 6 -12 6 C-12 5.34 -12 4.68 -12 4 C-10.390625 2.67578125 -10.390625 2.67578125 -8.25 1.3125 C-7.55390625 0.85488281 -6.8578125 0.39726563 -6.140625 -0.07421875 C-3.60909275 -1.16906025 -2.53899138 -0.9435441 0 0 Z " fill="#353687" transform="translate(31,38)"/>
<path d="M0 0 C5.75 0.875 5.75 0.875 8 2 C9.54023996 2.06950541 11.08334988 2.08452357 12.625 2.0625 C13.44226562 2.05347656 14.25953125 2.04445312 15.1015625 2.03515625 C15.72804688 2.02355469 16.35453125 2.01195312 17 2 C17 2.66 17 3.32 17 4 C17.66 4 18.32 4 19 4 C18.67 5.32 18.34 6.64 18 8 C17.01 8 16.02 8 15 8 C14.67 6.68 14.34 5.36 14 4 C12.35 4 10.7 4 9 4 C8.67 4.66 8.34 5.32 8 6 C6.66402348 5.19185349 5.331275 4.37836819 4 3.5625 C3.2575 3.11003906 2.515 2.65757813 1.75 2.19140625 C1.1725 1.79824219 0.595 1.40507813 0 1 C0 0.67 0 0.34 0 0 Z " fill="#6D5992" transform="translate(39,37)"/>
<path d="M0 0 C4.29 0 8.58 0 13 0 C13.33 1.65 13.66 3.3 14 5 C7.07 4.505 7.07 4.505 0 4 C0 2.68 0 1.36 0 0 Z " fill="#61619E" transform="translate(48,32)"/>
<path d="M0 0 C2.97 0 5.94 0 9 0 C9.33 2.31 9.66 4.62 10 7 C9.67 6.01 9.34 5.02 9 4 C5.7 4.33 2.4 4.66 -1 5 C-0.67 3.35 -0.34 1.7 0 0 Z " fill="#60609F" transform="translate(66,32)"/>
<path d="M0 0 C4.29 0 8.58 0 13 0 C13 0.33 13 0.66 13 1 C10.36 1.33 7.72 1.66 5 2 C7.64 3.65 10.28 5.3 13 7 C10 8 10 8 7.95703125 7.00390625 C7.24933594 6.52824219 6.54164062 6.05257812 5.8125 5.5625 C5.09707031 5.08941406 4.38164063 4.61632813 3.64453125 4.12890625 C3.10183594 3.75636719 2.55914062 3.38382813 2 3 C1.67 4.65 1.34 6.3 1 8 C0.67 8 0.34 8 0 8 C0 5.36 0 2.72 0 0 Z " fill="#F6F3F7" transform="translate(35,36)"/>
<path d="M0 0 C0.33 0 0.66 0 1 0 C1.33 1.98 1.66 3.96 2 6 C5.7910119 4.55049545 9.3874638 2.84827434 13 1 C12 4 12 4 9 6 C10.32 6.66 11.64 7.32 13 8 C8.71 8 4.42 8 0 8 C0 5.36 0 2.72 0 0 Z " fill="#F9F6F8" transform="translate(35,25)"/>
<path d="M0 0 C3.96 0 7.92 0 12 0 C12.33 1.32 12.66 2.64 13 4 C11.20793453 3.85915204 9.41635083 3.71216299 7.625 3.5625 C6.62726562 3.48128906 5.62953125 3.40007813 4.6015625 3.31640625 C2 3 2 3 0 2 C0 1.34 0 0.68 0 0 Z " fill="#383885" transform="translate(56,39)"/>
<path d="M0 0 C4.29 0 8.58 0 13 0 C13 2.64 13 5.28 13 8 C12.67 8 12.34 8 12 8 C11.67 6.02 11.34 4.04 11 2 C8.34587931 2.49150383 6.7062596 3.18183929 4.375 4.625 C3.59125 5.07875 2.8075 5.5325 2 6 C1.34 5.67 0.68 5.34 0 5 C1.32 4.01 2.64 3.02 4 2 C2.68 1.34 1.36 0.68 0 0 Z " fill="#F9F5F7" transform="translate(19,36)"/>
<path d="M0 0 C1.31602523 0.61754259 2.62773556 1.24428742 3.9375 1.875 C4.66839844 2.22304688 5.39929687 2.57109375 6.15234375 2.9296875 C8 4 8 4 9 6 C6.03 6 3.06 6 0 6 C0 4.02 0 2.04 0 0 Z " fill="#3B3B89" transform="translate(36,38)"/>
<path d="M0 0 C2.97 0 5.94 0 9 0 C9 1.98 9 3.96 9 6 C7.68397477 5.38245741 6.37226444 4.75571258 5.0625 4.125 C4.33160156 3.77695312 3.60070312 3.42890625 2.84765625 3.0703125 C1 2 1 2 0 0 Z " fill="#7F7FB2" transform="translate(22,25)"/>
<path d="M0 0 C0 0.66 0 1.32 0 2 C-1.64453125 3.2890625 -1.64453125 3.2890625 -3.8125 4.625 C-4.52019531 5.07101563 -5.22789063 5.51703125 -5.95703125 5.9765625 C-8 7 -8 7 -11 7 C-11 6.34 -11 5.68 -11 5 C-9.35546875 3.7109375 -9.35546875 3.7109375 -7.1875 2.375 C-6.47980469 1.92898437 -5.77210937 1.48296875 -5.04296875 1.0234375 C-3 0 -3 0 0 0 Z " fill="#D68190" transform="translate(30,37)"/>
<path d="M0 0 C2.97 1.65 5.94 3.3 9 5 C5 6 5 6 1 6 C0.67 4.02 0.34 2.04 0 0 Z " fill="#C494AA" transform="translate(19,26)"/>
<path d="M0 0 C0.59425781 0.20109375 1.18851563 0.4021875 1.80078125 0.609375 C0.34628724 1.6149511 -1.11294318 2.61367935 -2.57421875 3.609375 C-3.79238281 4.4446875 -3.79238281 4.4446875 -5.03515625 5.296875 C-7.19921875 6.609375 -7.19921875 6.609375 -9.19921875 6.609375 C-7.8496834 2.56076896 -4.56268351 -0.81042336 0 0 Z " fill="#E9ADB4" transform="translate(46.19921875,25.390625)"/>
<path d="M0 0 C0.99 0 1.98 0 3 0 C3 2.64 3 5.28 3 8 C2.01 8 1.02 8 0 8 C0 5.36 0 2.72 0 0 Z " fill="#E87679" transform="translate(32,25)"/>
<path d="M0 0 C3.73487777 0.4979837 5.81237635 0.87491756 9 3 C8.67 3.99 8.34 4.98 8 6 C6.66402348 5.19185349 5.331275 4.37836819 4 3.5625 C3.2575 3.11003906 2.515 2.65757813 1.75 2.19140625 C1.1725 1.79824219 0.595 1.40507813 0 1 C0 0.67 0 0.34 0 0 Z " fill="#D98492" transform="translate(39,37)"/>
<path d="M0 0 C1.65 0 3.3 0 5 0 C5.33 1.32 5.66 2.64 6 4 C3.03 3.505 3.03 3.505 0 3 C0 2.01 0 1.02 0 0 Z " fill="#2B2B7E" transform="translate(48,41)"/>
</svg>
