<?xml version="1.0" encoding="UTF-8"?>
<svg version="1.1" xmlns="http://www.w3.org/2000/svg" width="96" height="96">
<path d="M0 0 C20.46 0 40.92 0 62 0 C62 15.18 62 30.36 62 46 C41.54 46 21.08 46 0 46 C0 30.82 0 15.64 0 0 Z " fill="#000000" transform="translate(17,24)"/>
<path d="M0 0 C0 6.6 0 13.2 0 20 C-10.23 20 -20.46 20 -31 20 C-31 18.68 -31 17.36 -31 16 C-32.32 16.33 -33.64 16.66 -35 17 C-35 17.66 -35 18.32 -35 19 C-35.66 19 -36.32 19 -37 19 C-37 18.34 -37 17.68 -37 17 C-37.66 17 -38.32 17 -39 17 C-39 16.34 -39 15.68 -39 15 C-39.66 15 -40.32 15 -41 15 C-41 15.66 -41 16.32 -41 17 C-41.66 17 -42.32 17 -43 17 C-43 16.34 -43 15.68 -43 15 C-43.66 15 -44.32 15 -45 15 C-45 14.34 -45 13.68 -45 13 C-44.34 13 -43.68 13 -43 13 C-43 12.34 -43 11.68 -43 11 C-43.99 11 -44.98 11 -46 11 C-46 11.66 -46 12.32 -46 13 C-46.66 13 -47.32 13 -48 13 C-48 13.66 -48 14.32 -48 15 C-48.66 15 -49.32 15 -50 15 C-50 14.34 -50 13.68 -50 13 C-50.66 13 -51.32 13 -52 13 C-52 13.66 -52 14.32 -52 15 C-52.66 15 -53.32 15 -54 15 C-54 14.34 -54 13.68 -54 13 C-54.99 13 -55.98 13 -57 13 C-57 9.04 -57 5.08 -57 1 C-37.97983364 0.09504731 -19.03620004 -0.11406511 0 0 Z " fill="#7474A8" transform="translate(77,25)"/>
<path d="M0 0 C19.14 0 38.28 0 58 0 C58 3.3 58 6.6 58 10 C38.86 10 19.72 10 0 10 C0 6.7 0 3.4 0 0 Z " fill="#E1162D" transform="translate(19,48)"/>
<path d="M0 0 C19.14 0 38.28 0 58 0 C58 1.98 58 3.96 58 6 C38.86 6 19.72 6 0 6 C0 4.02 0 2.04 0 0 Z " fill="#CB162C" transform="translate(19,61)"/>
<path d="M0 0 C0 0.99 0 1.98 0 3 C-10.23 3 -20.46 3 -31 3 C-31.33 4.65 -31.66 6.3 -32 8 C-32.99 8.33 -33.98 8.66 -35 9 C-35 9.66 -35 10.32 -35 11 C-35.66 11 -36.32 11 -37 11 C-37 11.66 -37 12.32 -37 13 C-37.66 13 -38.32 13 -39 13 C-39 12.34 -39 11.68 -39 11 C-39.66 11 -40.32 11 -41 11 C-41 10.34 -41 9.68 -41 9 C-41.66 9 -42.32 9 -43 9 C-43 8.34 -43 7.68 -43 7 C-43.99 7 -44.98 7 -46 7 C-46 7.66 -46 8.32 -46 9 C-48 9 -48 9 -50.125 7 C-50.74375 6.34 -51.3625 5.68 -52 5 C-52 5.66 -52 6.32 -52 7 C-51.34 7 -50.68 7 -50 7 C-50 7.66 -50 8.32 -50 9 C-50.66 9 -51.32 9 -52 9 C-52 9.66 -52 10.32 -52 11 C-52.66 11 -53.32 11 -54 11 C-54 10.34 -54 9.68 -54 9 C-54.99 9 -55.98 9 -57 9 C-57 6.36 -57 3.72 -57 1 C-37.98305487 0.07867912 -19.03369547 -0.1241411 0 0 Z " fill="#8888B6" transform="translate(77,25)"/>
<path d="M0 0 C8.91 0 17.82 0 27 0 C27 0.33 27 0.66 27 1 C18.42 1 9.84 1 1 1 C1 4.96 1 8.92 1 13 C1.99 13 2.98 13 4 13 C4 13.66 4 14.32 4 15 C4.66 15 5.32 15 6 15 C6 14.34 6 13.68 6 13 C6.66 13 7.32 13 8 13 C8 13.66 8 14.32 8 15 C8.66 15 9.32 15 10 15 C10 14.34 10 13.68 10 13 C10.66 13 11.32 13 12 13 C12 12.34 12 11.68 12 11 C12.99 11 13.98 11 15 11 C15 11.66 15 12.32 15 13 C14.34 13 13.68 13 13 13 C13 13.66 13 14.32 13 15 C13.66 15 14.32 15 15 15 C15 15.66 15 16.32 15 17 C15.66 17 16.32 17 17 17 C17 16.34 17 15.68 17 15 C17.66 15 18.32 15 19 15 C19 15.66 19 16.32 19 17 C19.66 17 20.32 17 21 17 C21 17.66 21 18.32 21 19 C21.66 19 22.32 19 23 19 C23 18.34 23 17.68 23 17 C24.32 16.67 25.64 16.34 27 16 C27 18.31 27 20.62 27 23 C18.09 23 9.18 23 0 23 C0 15.41 0 7.82 0 0 Z " fill="#4C4C90" transform="translate(19,25)"/>
<path d="M0 0 C19.14 0 38.28 0 58 0 C58 1.32 58 2.64 58 4 C38.86 4 19.72 4 0 4 C0 2.68 0 1.36 0 0 Z " fill="#EFC8CC" transform="translate(19,54)"/>
<path d="M0 0 C19.14 0 38.28 0 58 0 C58 0.99 58 1.98 58 3 C38.86 3 19.72 3 0 3 C0 2.01 0 1.02 0 0 Z " fill="#EDEBEB" transform="translate(19,61)"/>
<path d="M0 0 C19.14 0 38.28 0 58 0 C58 0.99 58 1.98 58 3 C38.86 3 19.72 3 0 3 C0 2.01 0 1.02 0 0 Z " fill="#DA172D" transform="translate(19,58)"/>
<path d="M0 0 C19.14 0 38.28 0 58 0 C58 0.99 58 1.98 58 3 C38.86 3 19.72 3 0 3 C0 2.01 0 1.02 0 0 Z " fill="#FAF5F5" transform="translate(19,48)"/>
<path d="M0 0 C10.23 0 20.46 0 31 0 C31 1.32 31 2.64 31 4 C20.77 4 10.54 4 0 4 C0 2.68 0 1.36 0 0 Z " fill="#FAD7DB" transform="translate(46,41)"/>
<path d="M0 0 C10.23 0 20.46 0 31 0 C31 1.32 31 2.64 31 4 C20.77 4 10.54 4 0 4 C0 2.68 0 1.36 0 0 Z " fill="#FCE9EB" transform="translate(46,28)"/>
<path d="M0 0 C10.23 0 20.46 0 31 0 C31 0.99 31 1.98 31 3 C20.77 3 10.54 3 0 3 C0 2.01 0 1.02 0 0 Z " fill="#E6122B" transform="translate(46,45)"/>
<path d="M0 0 C10.23 0 20.46 0 31 0 C31 0.99 31 1.98 31 3 C20.77 3 10.54 3 0 3 C0 2.01 0 1.02 0 0 Z " fill="#ED4E61" transform="translate(46,38)"/>
<path d="M0 0 C10.23 0 20.46 0 31 0 C31 0.99 31 1.98 31 3 C20.77 3 10.54 3 0 3 C0 2.01 0 1.02 0 0 Z " fill="#FEFBFC" transform="translate(46,35)"/>
<path d="M0 0 C10.23 0 20.46 0 31 0 C31 0.99 31 1.98 31 3 C20.77 3 10.54 3 0 3 C0 2.01 0 1.02 0 0 Z " fill="#EF6D7D" transform="translate(46,32)"/>
<path d="M0 0 C10.23 0 20.46 0 31 0 C31 0.99 31 1.98 31 3 C20.77 3 10.54 3 0 3 C0 2.01 0 1.02 0 0 Z " fill="#EF8994" transform="translate(46,25)"/>
<path d="M0 0 C0.99 0.33 1.98 0.66 3 1 C3 1.66 3 2.32 3 3 C4.24136719 2.75443359 4.24136719 2.75443359 5.5078125 2.50390625 C9.32194189 1.9535453 13.03353501 1.88910945 16.875 1.9375 C17.90753906 1.94426758 17.90753906 1.94426758 18.9609375 1.95117188 C20.64066335 1.96283664 22.32034375 1.98076729 24 2 C24 2.99 24 3.98 24 5 C16.08 5 8.16 5 0 5 C0 3.35 0 1.7 0 0 Z " fill="#040467" transform="translate(22,43)"/>
<path d="M0 0 C8.58 0 17.16 0 26 0 C25.01 0.495 25.01 0.495 24 1 C24 1.66 24 2.32 24 3 C20.7 3 17.4 3 14 3 C14 2.34 14 1.68 14 1 C13.01 1 12.02 1 11 1 C11 1.66 11 2.32 11 3 C9.01432292 2.96744792 7.02864583 2.93489583 5.04296875 2.90234375 C2.79694539 2.91736783 2.79694539 2.91736783 0 4 C0 2.68 0 1.36 0 0 Z " fill="#A0A0C6" transform="translate(20,26)"/>
<path d="M0 0 C0 2.97 0 5.94 0 9 C-1.32 9.33 -2.64 9.66 -4 10 C-4 10.66 -4 11.32 -4 12 C-4.66 12 -5.32 12 -6 12 C-6 11.34 -6 10.68 -6 10 C-6.66 10 -7.32 10 -8 10 C-8 8.68 -8 7.36 -8 6 C-7.34 6 -6.68 6 -6 6 C-6 5.34 -6 4.68 -6 4 C-5.34 4 -4.68 4 -4 4 C-4 3.34 -4 2.68 -4 2 C-1 0 -1 0 0 0 Z " fill="#65659F" transform="translate(46,32)"/>
<path d="M0 0 C0.66 0.66 1.32 1.32 2 2 C2.99 2 3.98 2 5 2 C5 2.66 5 3.32 5 4 C4.01 4 3.02 4 2 4 C2 4.66 2 5.32 2 6 C0 6 0 6 -2.125 4 C-2.74375 3.34 -3.3625 2.68 -4 2 C-4 2.66 -4 3.32 -4 4 C-3.34 4 -2.68 4 -2 4 C-2 4.66 -2 5.32 -2 6 C-2.66 6 -3.32 6 -4 6 C-4 6.66 -4 7.32 -4 8 C-4.66 8 -5.32 8 -6 8 C-6 7.34 -6 6.68 -6 6 C-6.99 6 -7.98 6 -9 6 C-8.625 3.5625 -8.625 3.5625 -8 1 C-5.23749964 -0.38125018 -3.05268901 -0.19079306 0 0 Z " fill="#8B8BB8" transform="translate(29,28)"/>
<path d="M0 0 C8.91 0 17.82 0 27 0 C27 0.33 27 0.66 27 1 C18.42 1 9.84 1 1 1 C1.12375 4.09375 1.2475 7.1875 1.375 10.375 C1.40899902 11.34872559 1.44299805 12.32245117 1.47802734 13.32568359 C1.53144287 14.47544678 1.53144287 14.47544678 1.5859375 15.6484375 C1.6173584 16.43395996 1.6487793 17.21948242 1.68115234 18.02880859 C1.8399465 20.23002939 1.8399465 20.23002939 4 22 C2.68 22.33 1.36 22.66 0 23 C0 15.41 0 7.82 0 0 Z " fill="#2B2B7E" transform="translate(19,25)"/>
<path d="M0 0 C0.99 0 1.98 0 3 0 C3 0.66 3 1.32 3 2 C3.66 2 4.32 2 5 2 C5 1.34 5 0.68 5 0 C5.66 0 6.32 0 7 0 C7 0.66 7 1.32 7 2 C8.32 2 9.64 2 11 2 C11 2.66 11 3.32 11 4 C10.34 4 9.68 4 9 4 C9 4.66 9 5.32 9 6 C8.34 6 7.68 6 7 6 C7 5.34 7 4.68 7 4 C6.34 4 5.68 4 5 4 C5 4.66 5 5.32 5 6 C3 7 3 7 0 7 C0 4.69 0 2.38 0 0 Z " fill="#58589A" transform="translate(20,38)"/>
<path d="M0 0 C0.66 0 1.32 0 2 0 C2 1.65 2 3.3 2 5 C0.02 5.99 0.02 5.99 -2 7 C-2 7.66 -2 8.32 -2 9 C-2.66 9 -3.32 9 -4 9 C-4 9.66 -4 10.32 -4 11 C-4.66 11 -5.32 11 -6 11 C-6 9.68 -6 8.36 -6 7 C-5.34 7 -4.68 7 -4 7 C-4 6.34 -4 5.68 -4 5 C-4.66 5 -5.32 5 -6 5 C-6 4.34 -6 3.68 -6 3 C-4 3 -2 3 0 3 C0 2.01 0 1.02 0 0 Z " fill="#7A7AAC" transform="translate(44,27)"/>
<path d="M0 0 C0 1.32 0 2.64 0 4 C-5.41538462 5.23076923 -5.41538462 5.23076923 -8.375 4.0625 C-8.91125 3.711875 -9.4475 3.36125 -10 3 C-9.34 3 -8.68 3 -8 3 C-8 2.34 -8 1.68 -8 1 C-7.34 1 -6.68 1 -6 1 C-6 1.66 -6 2.32 -6 3 C-5.34 3 -4.68 3 -4 3 C-4 2.34 -4 1.68 -4 1 C-2 0 -2 0 0 0 Z " fill="#383885" transform="translate(46,41)"/>
<path d="M0 0 C0.66 0 1.32 0 2 0 C2 0.66 2 1.32 2 2 C2.66 2 3.32 2 4 2 C4 1.34 4 0.68 4 0 C4.99 0 5.98 0 7 0 C7 0.66 7 1.32 7 2 C7.66 2.33 8.32 2.66 9 3 C4.545 3.495 4.545 3.495 0 4 C0 2.68 0 1.36 0 0 Z " fill="#3A3A85" transform="translate(25,42)"/>
<path d="M0 0 C0.99 0 1.98 0 3 0 C3 0.66 3 1.32 3 2 C3.66 2 4.32 2 5 2 C5 3.32 5 4.64 5 6 C4.34 6 3.68 6 3 6 C3 5.34 3 4.68 3 4 C2.01 4 1.02 4 0 4 C0 2.68 0 1.36 0 0 Z " fill="#6F6FA7" transform="translate(20,34)"/>
<path d="M0 0 C0.66 0 1.32 0 2 0 C2 1.65 2 3.3 2 5 C0.02 5.99 0.02 5.99 -2 7 C-2 5.68 -2 4.36 -2 3 C-1.34 3 -0.68 3 0 3 C0 2.01 0 1.02 0 0 Z " fill="#8080B2" transform="translate(44,27)"/>
<path d="M0 0 C0 1.65 0 3.3 0 5 C-1.32 5.33 -2.64 5.66 -4 6 C-4 4.68 -4 3.36 -4 2 C-1 0 -1 0 0 0 Z " fill="#6868A4" transform="translate(46,32)"/>
<path d="M0 0 C0.33 1.32 0.66 2.64 1 4 C-0.875 4.625 -0.875 4.625 -3 5 C-3.66 4.34 -4.32 3.68 -5 3 C-4.34 3 -3.68 3 -3 3 C-3 2.34 -3 1.68 -3 1 C-2.01 0.67 -1.02 0.34 0 0 Z " fill="#4E4E93" transform="translate(45,37)"/>
</svg>
